<svg width="44" height="53" viewBox="0 0 44 53" fill="none" xmlns="http://www.w3.org/2000/svg">
<path d="M31.4826 0C28.2666 0 25.0505 1.39138 22.5912 3.9091L5.06055 21.9307C-1.68685 29.0201 -1.68685 40.4824 5.06055 47.638C11.808 54.7274 22.7173 54.7274 29.5278 47.638L37.4102 39.3561L33.0591 34.7844L25.7442 42.2713L25.1766 43.1326C20.8255 47.7043 13.7628 47.7043 9.41168 43.1326C5.12361 38.6272 5.24973 31.3391 9.41168 26.7674L26.9423 8.54702C29.4016 5.96304 33.5005 5.96304 36.0229 8.54702C38.4823 11.131 38.3561 15.2389 36.0229 17.8891L20.258 34.2543C19.6274 34.9169 18.5554 34.9169 17.8617 34.2543C17.2311 33.5918 17.2311 32.4654 17.8617 31.7366L18.2401 31.5378L23.9785 25.3098L19.6274 20.7381L13.5106 27.165C10.4837 30.3452 10.4837 35.5795 13.5106 38.7597C16.5374 41.94 21.5192 42.0063 24.546 38.7597L40.311 22.5933C45.2297 17.4253 45.2297 9.07707 40.311 3.97536C37.8517 1.39138 34.6987 0.066256 31.4196 0.066256L31.4826 0Z" fill="#ABAAAA"/>
</svg>
